# xmcd CD database file
#
# Track frame offsets:
#	150
#	15668
#	35462
#	57782
#	76150
#	97771
#	120167
#	148297
#	164291
#	182868
#	205650
#	228708
#
# Disc length: 3494 seconds
#
# Revision: 0
# Processed by: cddbd v1.5.2PL0 Copyright (c) Steve Scherf et al.
# Submitted via: CDex 1.70beta2
#
DISCID=920da40c
DTITLE=Olaf Tarenskeen - One With Everything
DYEAR=1900
DGENRE=Jazz
TTITLE0=Skylark
TTITLE1=Billies Bounce
TTITLE2=Girl From Ipanema
TTITLE3=One With Everything
TTITLE4=Earls Fantasy
TTITLE5=Nardis
TTITLE6=When Tears Were No Issue
TTITLE7=You Are The Sunshine
TTITLE8=Toccata
TTITLE9=When I Fall In Love
TTITLE10=Changes
TTITLE11=I Hear A Rhapsody
EXTD=
EXTT0=
EXTT1=
EXTT2=
EXTT3=
EXTT4=
EXTT5=
EXTT6=
EXTT7=
EXTT8=
EXTT9=
EXTT10=
EXTT11=
PLAYORDER=
